<mxfile host="app.diagrams.net" modified="2023-11-18T22:57:32.583Z" agent="Mozilla/5.0 (Windows NT 10.0; Win64; x64) AppleWebKit/537.36 (KHTML, like Gecko) Chrome/119.0.0.0 Safari/537.36" etag="CB5-5h7DqK5i189ueFjm" version="22.1.3" type="google">
  <diagram name="PÃ¡gina-1" id="zJc5hzAkgvO5rgfo7cWq">
    <mxGraphModel grid="1" page="1" gridSize="10" guides="1" tooltips="1" connect="1" arrows="1" fold="1" pageScale="1" pageWidth="827" pageHeight="1169" math="0" shadow="0">
      <root>
        <mxCell id="0" />
        <mxCell id="1" parent="0" />
        <mxCell id="Zt3mCWF-h2V0yo3Kd6dN-1" value="&lt;i&gt;this&lt;/i&gt; : &lt;b&gt;Mascota&lt;/b&gt;" style="shape=umlLifeline;perimeter=lifelinePerimeter;whiteSpace=wrap;html=1;container=0;dropTarget=0;collapsible=0;recursiveResize=0;outlineConnect=0;portConstraint=eastwest;newEdgeStyle={&quot;edgeStyle&quot;:&quot;elbowEdgeStyle&quot;,&quot;elbow&quot;:&quot;vertical&quot;,&quot;curved&quot;:0,&quot;rounded&quot;:0};" vertex="1" parent="1">
          <mxGeometry x="132.26" y="-1070" width="136" height="270" as="geometry" />
        </mxCell>
        <mxCell id="Zt3mCWF-h2V0yo3Kd6dN-2" value="" style="html=1;points=[];perimeter=orthogonalPerimeter;outlineConnect=0;targetShapes=umlLifeline;portConstraint=eastwest;newEdgeStyle={&quot;edgeStyle&quot;:&quot;elbowEdgeStyle&quot;,&quot;elbow&quot;:&quot;vertical&quot;,&quot;curved&quot;:0,&quot;rounded&quot;:0};" vertex="1" parent="Zt3mCWF-h2V0yo3Kd6dN-1">
          <mxGeometry x="63" y="70" width="10" height="40" as="geometry" />
        </mxCell>
        <mxCell id="Zt3mCWF-h2V0yo3Kd6dN-3" value="" style="html=1;points=[];perimeter=orthogonalPerimeter;outlineConnect=0;targetShapes=umlLifeline;portConstraint=eastwest;newEdgeStyle={&quot;edgeStyle&quot;:&quot;elbowEdgeStyle&quot;,&quot;elbow&quot;:&quot;vertical&quot;,&quot;curved&quot;:0,&quot;rounded&quot;:0};" vertex="1" parent="Zt3mCWF-h2V0yo3Kd6dN-1">
          <mxGeometry x="63" y="140" width="10" height="60" as="geometry" />
        </mxCell>
        <mxCell id="Zt3mCWF-h2V0yo3Kd6dN-4" value="&lt;i style=&quot;border-color: var(--border-color);&quot;&gt;estadoHambriento&lt;/i&gt;&amp;nbsp;:&amp;nbsp;&lt;br&gt;&lt;b style=&quot;border-color: var(--border-color);&quot;&gt;EstadoHambriento&lt;/b&gt;" style="shape=umlLifeline;perimeter=lifelinePerimeter;whiteSpace=wrap;html=1;container=0;dropTarget=0;collapsible=0;recursiveResize=0;outlineConnect=0;portConstraint=eastwest;newEdgeStyle={&quot;edgeStyle&quot;:&quot;elbowEdgeStyle&quot;,&quot;elbow&quot;:&quot;vertical&quot;,&quot;curved&quot;:0,&quot;rounded&quot;:0};" vertex="1" parent="1">
          <mxGeometry x="332.26" y="-1070" width="177.74" height="190" as="geometry" />
        </mxCell>
        <mxCell id="Zt3mCWF-h2V0yo3Kd6dN-5" value="" style="html=1;points=[];perimeter=orthogonalPerimeter;outlineConnect=0;targetShapes=umlLifeline;portConstraint=eastwest;newEdgeStyle={&quot;edgeStyle&quot;:&quot;elbowEdgeStyle&quot;,&quot;elbow&quot;:&quot;vertical&quot;,&quot;curved&quot;:0,&quot;rounded&quot;:0};" vertex="1" parent="Zt3mCWF-h2V0yo3Kd6dN-4">
          <mxGeometry x="83.87" y="100" width="10" height="60" as="geometry" />
        </mxCell>
        <mxCell id="Zt3mCWF-h2V0yo3Kd6dN-6" value="" style="shape=umlDestroy;whiteSpace=wrap;html=1;strokeWidth=3;targetShapes=umlLifeline;" vertex="1" parent="Zt3mCWF-h2V0yo3Kd6dN-4">
          <mxGeometry x="73.87" y="170" width="30" height="30" as="geometry" />
        </mxCell>
        <mxCell id="Zt3mCWF-h2V0yo3Kd6dN-7" value="2:&lt;br&gt;&amp;nbsp;+ recibirComida()" style="html=1;verticalAlign=bottom;endArrow=block;edgeStyle=elbowEdgeStyle;elbow=horizontal;curved=0;rounded=0;" edge="1" parent="1" target="Zt3mCWF-h2V0yo3Kd6dN-5">
          <mxGeometry x="-0.0066" relative="1" as="geometry">
            <mxPoint x="205.26" y="-965" as="sourcePoint" />
            <Array as="points">
              <mxPoint x="310" y="-965" />
            </Array>
            <mxPoint x="384.53999999999996" y="-964.97" as="targetPoint" />
            <mxPoint as="offset" />
          </mxGeometry>
        </mxCell>
        <mxCell id="Zt3mCWF-h2V0yo3Kd6dN-8" value="1:&lt;br&gt;+recibirComida()" style="html=1;verticalAlign=bottom;startArrow=oval;startFill=1;endArrow=block;startSize=8;edgeStyle=elbowEdgeStyle;elbow=vertical;curved=0;rounded=0;" edge="1" parent="1">
          <mxGeometry width="60" relative="1" as="geometry">
            <mxPoint x="62.25999999999999" y="-989.7241379310344" as="sourcePoint" />
            <mxPoint x="192.26" y="-989.69" as="targetPoint" />
          </mxGeometry>
        </mxCell>
        <mxCell id="Zt3mCWF-h2V0yo3Kd6dN-9" value="" style="html=1;verticalAlign=bottom;endArrow=open;dashed=1;endSize=8;edgeStyle=elbowEdgeStyle;elbow=vertical;curved=0;rounded=0;exitX=0.473;exitY=0.574;exitDx=0;exitDy=0;exitPerimeter=0;" edge="1" parent="1">
          <mxGeometry x="-0.0028" relative="1" as="geometry">
            <mxPoint x="416.00101999999987" y="-919.94" as="sourcePoint" />
            <mxPoint x="210" y="-920" as="targetPoint" />
            <mxPoint as="offset" />
            <Array as="points" />
          </mxGeometry>
        </mxCell>
        <mxCell id="Zt3mCWF-h2V0yo3Kd6dN-11" value="&lt;i style=&quot;border-color: var(--border-color);&quot;&gt;estadoFeliz&lt;/i&gt;" style="text;html=1;strokeColor=none;fillColor=none;align=center;verticalAlign=middle;whiteSpace=wrap;rounded=0;" vertex="1" parent="1">
          <mxGeometry x="267" y="-950" width="90" height="30" as="geometry" />
        </mxCell>
        <mxCell id="Zt3mCWF-h2V0yo3Kd6dN-12" value="&lt;i style=&quot;border-color: var(--border-color);&quot;&gt;estadoFeliz&lt;/i&gt;&amp;nbsp;:&amp;nbsp;&lt;br&gt;&lt;b style=&quot;border-color: var(--border-color);&quot;&gt;EstadoFeliz&lt;/b&gt;" style="shape=umlLifeline;perimeter=lifelinePerimeter;whiteSpace=wrap;html=1;container=1;dropTarget=0;collapsible=0;recursiveResize=0;outlineConnect=0;portConstraint=eastwest;newEdgeStyle={&quot;curved&quot;:0,&quot;rounded&quot;:0};" vertex="1" parent="1">
          <mxGeometry x="560" y="-960" width="140" height="160" as="geometry" />
        </mxCell>
        <mxCell id="Zt3mCWF-h2V0yo3Kd6dN-13" value="3:&lt;br&gt;new EstadoFeliz()" style="html=1;verticalAlign=bottom;startArrow=none;startFill=0;endArrow=block;curved=0;rounded=0;entryX=0;entryY=0.143;entryDx=0;entryDy=0;entryPerimeter=0;strokeColor=default;" edge="1" parent="1" source="Zt3mCWF-h2V0yo3Kd6dN-5" target="Zt3mCWF-h2V0yo3Kd6dN-12">
          <mxGeometry x="-0.0006" width="60" relative="1" as="geometry">
            <mxPoint x="430" y="-940" as="sourcePoint" />
            <mxPoint x="550" y="-940" as="targetPoint" />
            <mxPoint as="offset" />
          </mxGeometry>
        </mxCell>
        <mxCell id="Zt3mCWF-h2V0yo3Kd6dN-15" value="&lt;i&gt;this&lt;/i&gt; : &lt;b&gt;Mascota&lt;/b&gt;" style="shape=umlLifeline;perimeter=lifelinePerimeter;whiteSpace=wrap;html=1;container=0;dropTarget=0;collapsible=0;recursiveResize=0;outlineConnect=0;portConstraint=eastwest;newEdgeStyle={&quot;edgeStyle&quot;:&quot;elbowEdgeStyle&quot;,&quot;elbow&quot;:&quot;vertical&quot;,&quot;curved&quot;:0,&quot;rounded&quot;:0};" vertex="1" parent="1">
          <mxGeometry x="132.26" y="-770" width="136" height="270" as="geometry" />
        </mxCell>
        <mxCell id="Zt3mCWF-h2V0yo3Kd6dN-16" value="" style="html=1;points=[];perimeter=orthogonalPerimeter;outlineConnect=0;targetShapes=umlLifeline;portConstraint=eastwest;newEdgeStyle={&quot;edgeStyle&quot;:&quot;elbowEdgeStyle&quot;,&quot;elbow&quot;:&quot;vertical&quot;,&quot;curved&quot;:0,&quot;rounded&quot;:0};" vertex="1" parent="Zt3mCWF-h2V0yo3Kd6dN-15">
          <mxGeometry x="63" y="70" width="10" height="40" as="geometry" />
        </mxCell>
        <mxCell id="Zt3mCWF-h2V0yo3Kd6dN-17" value="" style="html=1;points=[];perimeter=orthogonalPerimeter;outlineConnect=0;targetShapes=umlLifeline;portConstraint=eastwest;newEdgeStyle={&quot;edgeStyle&quot;:&quot;elbowEdgeStyle&quot;,&quot;elbow&quot;:&quot;vertical&quot;,&quot;curved&quot;:0,&quot;rounded&quot;:0};" vertex="1" parent="Zt3mCWF-h2V0yo3Kd6dN-15">
          <mxGeometry x="63" y="140" width="10" height="60" as="geometry" />
        </mxCell>
        <mxCell id="Zt3mCWF-h2V0yo3Kd6dN-18" value="&lt;i style=&quot;border-color: var(--border-color);&quot;&gt;estadoSediento&lt;/i&gt;&amp;nbsp;:&amp;nbsp;&lt;br&gt;&lt;b style=&quot;border-color: var(--border-color);&quot;&gt;EstadoSediento&lt;/b&gt;" style="shape=umlLifeline;perimeter=lifelinePerimeter;whiteSpace=wrap;html=1;container=0;dropTarget=0;collapsible=0;recursiveResize=0;outlineConnect=0;portConstraint=eastwest;newEdgeStyle={&quot;edgeStyle&quot;:&quot;elbowEdgeStyle&quot;,&quot;elbow&quot;:&quot;vertical&quot;,&quot;curved&quot;:0,&quot;rounded&quot;:0};" vertex="1" parent="1">
          <mxGeometry x="332.26" y="-770" width="177.74" height="190" as="geometry" />
        </mxCell>
        <mxCell id="Zt3mCWF-h2V0yo3Kd6dN-19" value="" style="html=1;points=[];perimeter=orthogonalPerimeter;outlineConnect=0;targetShapes=umlLifeline;portConstraint=eastwest;newEdgeStyle={&quot;edgeStyle&quot;:&quot;elbowEdgeStyle&quot;,&quot;elbow&quot;:&quot;vertical&quot;,&quot;curved&quot;:0,&quot;rounded&quot;:0};" vertex="1" parent="Zt3mCWF-h2V0yo3Kd6dN-18">
          <mxGeometry x="83.87" y="100" width="10" height="60" as="geometry" />
        </mxCell>
        <mxCell id="Zt3mCWF-h2V0yo3Kd6dN-20" value="" style="shape=umlDestroy;whiteSpace=wrap;html=1;strokeWidth=3;targetShapes=umlLifeline;" vertex="1" parent="Zt3mCWF-h2V0yo3Kd6dN-18">
          <mxGeometry x="73.87" y="170" width="30" height="30" as="geometry" />
        </mxCell>
        <mxCell id="Zt3mCWF-h2V0yo3Kd6dN-21" value="2:&lt;br&gt;&amp;nbsp;+ recibirAgua()" style="html=1;verticalAlign=bottom;endArrow=block;edgeStyle=elbowEdgeStyle;elbow=horizontal;curved=0;rounded=0;" edge="1" parent="1" target="Zt3mCWF-h2V0yo3Kd6dN-19">
          <mxGeometry x="-0.0066" relative="1" as="geometry">
            <mxPoint x="205.26" y="-665" as="sourcePoint" />
            <Array as="points">
              <mxPoint x="310" y="-665" />
            </Array>
            <mxPoint x="384.53999999999996" y="-664.97" as="targetPoint" />
            <mxPoint as="offset" />
          </mxGeometry>
        </mxCell>
        <mxCell id="Zt3mCWF-h2V0yo3Kd6dN-22" value="1:&lt;br&gt;+recibirAgua()" style="html=1;verticalAlign=bottom;startArrow=oval;startFill=1;endArrow=block;startSize=8;edgeStyle=elbowEdgeStyle;elbow=vertical;curved=0;rounded=0;" edge="1" parent="1">
          <mxGeometry width="60" relative="1" as="geometry">
            <mxPoint x="62.25999999999999" y="-689.7241379310344" as="sourcePoint" />
            <mxPoint x="192.26" y="-689.69" as="targetPoint" />
          </mxGeometry>
        </mxCell>
        <mxCell id="Zt3mCWF-h2V0yo3Kd6dN-23" value="" style="html=1;verticalAlign=bottom;endArrow=open;dashed=1;endSize=8;edgeStyle=elbowEdgeStyle;elbow=vertical;curved=0;rounded=0;exitX=0.473;exitY=0.574;exitDx=0;exitDy=0;exitPerimeter=0;" edge="1" parent="1">
          <mxGeometry x="-0.0028" relative="1" as="geometry">
            <mxPoint x="416.00101999999987" y="-619.94" as="sourcePoint" />
            <mxPoint x="210" y="-620" as="targetPoint" />
            <mxPoint as="offset" />
            <Array as="points" />
          </mxGeometry>
        </mxCell>
        <mxCell id="Zt3mCWF-h2V0yo3Kd6dN-25" value="&lt;i style=&quot;border-color: var(--border-color);&quot;&gt;estadoFeliz&lt;/i&gt;" style="text;html=1;strokeColor=none;fillColor=none;align=center;verticalAlign=middle;whiteSpace=wrap;rounded=0;" vertex="1" parent="1">
          <mxGeometry x="267" y="-650" width="90" height="30" as="geometry" />
        </mxCell>
        <mxCell id="Zt3mCWF-h2V0yo3Kd6dN-26" value="&lt;i style=&quot;border-color: var(--border-color);&quot;&gt;estadoFeliz&lt;/i&gt;&amp;nbsp;:&amp;nbsp;&lt;br&gt;&lt;b style=&quot;border-color: var(--border-color);&quot;&gt;EstadoFeliz&lt;/b&gt;" style="shape=umlLifeline;perimeter=lifelinePerimeter;whiteSpace=wrap;html=1;container=1;dropTarget=0;collapsible=0;recursiveResize=0;outlineConnect=0;portConstraint=eastwest;newEdgeStyle={&quot;curved&quot;:0,&quot;rounded&quot;:0};" vertex="1" parent="1">
          <mxGeometry x="560" y="-660" width="140" height="160" as="geometry" />
        </mxCell>
        <mxCell id="Zt3mCWF-h2V0yo3Kd6dN-27" value="3:&lt;br&gt;new EstadoFeliz()" style="html=1;verticalAlign=bottom;startArrow=none;startFill=0;endArrow=block;curved=0;rounded=0;entryX=0;entryY=0.143;entryDx=0;entryDy=0;entryPerimeter=0;strokeColor=default;" edge="1" parent="1" source="Zt3mCWF-h2V0yo3Kd6dN-19" target="Zt3mCWF-h2V0yo3Kd6dN-26">
          <mxGeometry x="-0.0006" width="60" relative="1" as="geometry">
            <mxPoint x="430" y="-640" as="sourcePoint" />
            <mxPoint x="550" y="-640" as="targetPoint" />
            <mxPoint as="offset" />
          </mxGeometry>
        </mxCell>
        <mxCell id="Zt3mCWF-h2V0yo3Kd6dN-43" value="&lt;i&gt;this&lt;/i&gt; : &lt;b&gt;Mascota&lt;/b&gt;" style="shape=umlLifeline;perimeter=lifelinePerimeter;whiteSpace=wrap;html=1;container=0;dropTarget=0;collapsible=0;recursiveResize=0;outlineConnect=0;portConstraint=eastwest;newEdgeStyle={&quot;edgeStyle&quot;:&quot;elbowEdgeStyle&quot;,&quot;elbow&quot;:&quot;vertical&quot;,&quot;curved&quot;:0,&quot;rounded&quot;:0};" vertex="1" parent="1">
          <mxGeometry x="132.26" y="-450" width="136" height="270" as="geometry" />
        </mxCell>
        <mxCell id="Zt3mCWF-h2V0yo3Kd6dN-44" value="" style="html=1;points=[];perimeter=orthogonalPerimeter;outlineConnect=0;targetShapes=umlLifeline;portConstraint=eastwest;newEdgeStyle={&quot;edgeStyle&quot;:&quot;elbowEdgeStyle&quot;,&quot;elbow&quot;:&quot;vertical&quot;,&quot;curved&quot;:0,&quot;rounded&quot;:0};" vertex="1" parent="Zt3mCWF-h2V0yo3Kd6dN-43">
          <mxGeometry x="63" y="70" width="10" height="40" as="geometry" />
        </mxCell>
        <mxCell id="Zt3mCWF-h2V0yo3Kd6dN-45" value="" style="html=1;points=[];perimeter=orthogonalPerimeter;outlineConnect=0;targetShapes=umlLifeline;portConstraint=eastwest;newEdgeStyle={&quot;edgeStyle&quot;:&quot;elbowEdgeStyle&quot;,&quot;elbow&quot;:&quot;vertical&quot;,&quot;curved&quot;:0,&quot;rounded&quot;:0};" vertex="1" parent="Zt3mCWF-h2V0yo3Kd6dN-43">
          <mxGeometry x="63" y="140" width="10" height="60" as="geometry" />
        </mxCell>
        <mxCell id="Zt3mCWF-h2V0yo3Kd6dN-46" value="&lt;i style=&quot;border-color: var(--border-color);&quot;&gt;estadoEnfermo&lt;/i&gt;:&amp;nbsp;&lt;br&gt;&lt;b style=&quot;border-color: var(--border-color);&quot;&gt;EstadoEnfermo&lt;/b&gt;" style="shape=umlLifeline;perimeter=lifelinePerimeter;whiteSpace=wrap;html=1;container=0;dropTarget=0;collapsible=0;recursiveResize=0;outlineConnect=0;portConstraint=eastwest;newEdgeStyle={&quot;edgeStyle&quot;:&quot;elbowEdgeStyle&quot;,&quot;elbow&quot;:&quot;vertical&quot;,&quot;curved&quot;:0,&quot;rounded&quot;:0};" vertex="1" parent="1">
          <mxGeometry x="332.26" y="-450" width="177.74" height="190" as="geometry" />
        </mxCell>
        <mxCell id="Zt3mCWF-h2V0yo3Kd6dN-47" value="" style="html=1;points=[];perimeter=orthogonalPerimeter;outlineConnect=0;targetShapes=umlLifeline;portConstraint=eastwest;newEdgeStyle={&quot;edgeStyle&quot;:&quot;elbowEdgeStyle&quot;,&quot;elbow&quot;:&quot;vertical&quot;,&quot;curved&quot;:0,&quot;rounded&quot;:0};" vertex="1" parent="Zt3mCWF-h2V0yo3Kd6dN-46">
          <mxGeometry x="83.87" y="100" width="10" height="60" as="geometry" />
        </mxCell>
        <mxCell id="Zt3mCWF-h2V0yo3Kd6dN-48" value="" style="shape=umlDestroy;whiteSpace=wrap;html=1;strokeWidth=3;targetShapes=umlLifeline;" vertex="1" parent="Zt3mCWF-h2V0yo3Kd6dN-46">
          <mxGeometry x="73.87" y="170" width="30" height="30" as="geometry" />
        </mxCell>
        <mxCell id="Zt3mCWF-h2V0yo3Kd6dN-49" value="2:&lt;br&gt;&amp;nbsp;+recibirMedicina&lt;br&gt;()" style="html=1;verticalAlign=bottom;endArrow=block;edgeStyle=elbowEdgeStyle;elbow=horizontal;curved=0;rounded=0;" edge="1" parent="1" target="Zt3mCWF-h2V0yo3Kd6dN-47">
          <mxGeometry x="-0.0066" relative="1" as="geometry">
            <mxPoint x="205.26" y="-345" as="sourcePoint" />
            <Array as="points">
              <mxPoint x="310" y="-345" />
            </Array>
            <mxPoint x="384.53999999999996" y="-344.97" as="targetPoint" />
            <mxPoint as="offset" />
          </mxGeometry>
        </mxCell>
        <mxCell id="Zt3mCWF-h2V0yo3Kd6dN-50" value="1:&lt;br&gt;+recibirMedicina()" style="html=1;verticalAlign=bottom;startArrow=oval;startFill=1;endArrow=block;startSize=8;edgeStyle=elbowEdgeStyle;elbow=horizontal;curved=0;rounded=0;" edge="1" parent="1">
          <mxGeometry width="60" relative="1" as="geometry">
            <mxPoint x="62.259999999999984" y="-369.7241379310344" as="sourcePoint" />
            <mxPoint x="192.26" y="-369.69000000000005" as="targetPoint" />
          </mxGeometry>
        </mxCell>
        <mxCell id="Zt3mCWF-h2V0yo3Kd6dN-51" value="" style="html=1;verticalAlign=bottom;endArrow=open;dashed=1;endSize=8;edgeStyle=elbowEdgeStyle;elbow=vertical;curved=0;rounded=0;exitX=0.473;exitY=0.574;exitDx=0;exitDy=0;exitPerimeter=0;" edge="1" parent="1">
          <mxGeometry x="-0.0028" relative="1" as="geometry">
            <mxPoint x="416.00101999999987" y="-299.94000000000005" as="sourcePoint" />
            <mxPoint x="210" y="-300" as="targetPoint" />
            <mxPoint as="offset" />
            <Array as="points" />
          </mxGeometry>
        </mxCell>
        <mxCell id="Zt3mCWF-h2V0yo3Kd6dN-52" value="&lt;i style=&quot;border-color: var(--border-color);&quot;&gt;estadoFeliz&lt;/i&gt;" style="text;html=1;strokeColor=none;fillColor=none;align=center;verticalAlign=middle;whiteSpace=wrap;rounded=0;" vertex="1" parent="1">
          <mxGeometry x="267" y="-330" width="90" height="30" as="geometry" />
        </mxCell>
        <mxCell id="Zt3mCWF-h2V0yo3Kd6dN-53" value="&lt;i style=&quot;border-color: var(--border-color);&quot;&gt;estadoFeliz&lt;/i&gt;&amp;nbsp;:&amp;nbsp;&lt;br&gt;&lt;b style=&quot;border-color: var(--border-color);&quot;&gt;EstadoFeliz&lt;/b&gt;" style="shape=umlLifeline;perimeter=lifelinePerimeter;whiteSpace=wrap;html=1;container=1;dropTarget=0;collapsible=0;recursiveResize=0;outlineConnect=0;portConstraint=eastwest;newEdgeStyle={&quot;curved&quot;:0,&quot;rounded&quot;:0};" vertex="1" parent="1">
          <mxGeometry x="560" y="-340" width="140" height="160" as="geometry" />
        </mxCell>
        <mxCell id="Zt3mCWF-h2V0yo3Kd6dN-54" value="3:&lt;br&gt;new EstadoFeliz()" style="html=1;verticalAlign=bottom;startArrow=none;startFill=0;endArrow=block;curved=0;rounded=0;entryX=0;entryY=0.143;entryDx=0;entryDy=0;entryPerimeter=0;strokeColor=default;" edge="1" parent="1" source="Zt3mCWF-h2V0yo3Kd6dN-47" target="Zt3mCWF-h2V0yo3Kd6dN-53">
          <mxGeometry x="-0.0006" width="60" relative="1" as="geometry">
            <mxPoint x="430" y="-320" as="sourcePoint" />
            <mxPoint x="550" y="-320" as="targetPoint" />
            <mxPoint as="offset" />
          </mxGeometry>
        </mxCell>
        <mxCell id="Zt3mCWF-h2V0yo3Kd6dN-55" value="&lt;i&gt;this&lt;/i&gt; : &lt;b&gt;Mascota&lt;/b&gt;" style="shape=umlLifeline;perimeter=lifelinePerimeter;whiteSpace=wrap;html=1;container=0;dropTarget=0;collapsible=0;recursiveResize=0;outlineConnect=0;portConstraint=eastwest;newEdgeStyle={&quot;edgeStyle&quot;:&quot;elbowEdgeStyle&quot;,&quot;elbow&quot;:&quot;vertical&quot;,&quot;curved&quot;:0,&quot;rounded&quot;:0};" vertex="1" parent="1">
          <mxGeometry x="132.26" y="-130" width="136" height="270" as="geometry" />
        </mxCell>
        <mxCell id="Zt3mCWF-h2V0yo3Kd6dN-56" value="" style="html=1;points=[];perimeter=orthogonalPerimeter;outlineConnect=0;targetShapes=umlLifeline;portConstraint=eastwest;newEdgeStyle={&quot;edgeStyle&quot;:&quot;elbowEdgeStyle&quot;,&quot;elbow&quot;:&quot;vertical&quot;,&quot;curved&quot;:0,&quot;rounded&quot;:0};" vertex="1" parent="Zt3mCWF-h2V0yo3Kd6dN-55">
          <mxGeometry x="63" y="70" width="10" height="40" as="geometry" />
        </mxCell>
        <mxCell id="Zt3mCWF-h2V0yo3Kd6dN-57" value="" style="html=1;points=[];perimeter=orthogonalPerimeter;outlineConnect=0;targetShapes=umlLifeline;portConstraint=eastwest;newEdgeStyle={&quot;edgeStyle&quot;:&quot;elbowEdgeStyle&quot;,&quot;elbow&quot;:&quot;vertical&quot;,&quot;curved&quot;:0,&quot;rounded&quot;:0};" vertex="1" parent="Zt3mCWF-h2V0yo3Kd6dN-55">
          <mxGeometry x="63" y="140" width="10" height="60" as="geometry" />
        </mxCell>
        <mxCell id="Zt3mCWF-h2V0yo3Kd6dN-58" value="&lt;i style=&quot;border-color: var(--border-color);&quot;&gt;estadoFeliz&lt;/i&gt;&amp;nbsp;:&amp;nbsp;&lt;br&gt;&lt;b style=&quot;border-color: var(--border-color);&quot;&gt;EstadoFeliz&lt;/b&gt;" style="shape=umlLifeline;perimeter=lifelinePerimeter;whiteSpace=wrap;html=1;container=0;dropTarget=0;collapsible=0;recursiveResize=0;outlineConnect=0;portConstraint=eastwest;newEdgeStyle={&quot;edgeStyle&quot;:&quot;elbowEdgeStyle&quot;,&quot;elbow&quot;:&quot;vertical&quot;,&quot;curved&quot;:0,&quot;rounded&quot;:0};" vertex="1" parent="1">
          <mxGeometry x="332.26" y="-130" width="177.74" height="190" as="geometry" />
        </mxCell>
        <mxCell id="Zt3mCWF-h2V0yo3Kd6dN-59" value="" style="html=1;points=[];perimeter=orthogonalPerimeter;outlineConnect=0;targetShapes=umlLifeline;portConstraint=eastwest;newEdgeStyle={&quot;edgeStyle&quot;:&quot;elbowEdgeStyle&quot;,&quot;elbow&quot;:&quot;vertical&quot;,&quot;curved&quot;:0,&quot;rounded&quot;:0};" vertex="1" parent="Zt3mCWF-h2V0yo3Kd6dN-58">
          <mxGeometry x="83.87" y="100" width="10" height="60" as="geometry" />
        </mxCell>
        <mxCell id="Zt3mCWF-h2V0yo3Kd6dN-60" value="" style="shape=umlDestroy;whiteSpace=wrap;html=1;strokeWidth=3;targetShapes=umlLifeline;" vertex="1" parent="Zt3mCWF-h2V0yo3Kd6dN-58">
          <mxGeometry x="73.87" y="170" width="30" height="30" as="geometry" />
        </mxCell>
        <mxCell id="Zt3mCWF-h2V0yo3Kd6dN-61" value="2:&lt;br&gt;&amp;nbsp;+recibirComida&lt;br&gt;()" style="html=1;verticalAlign=bottom;endArrow=block;edgeStyle=elbowEdgeStyle;elbow=horizontal;curved=0;rounded=0;" edge="1" parent="1" target="Zt3mCWF-h2V0yo3Kd6dN-59">
          <mxGeometry x="-0.0066" relative="1" as="geometry">
            <mxPoint x="205.26" y="-25" as="sourcePoint" />
            <Array as="points">
              <mxPoint x="310" y="-25" />
            </Array>
            <mxPoint x="384.53999999999996" y="-24.970000000000027" as="targetPoint" />
            <mxPoint as="offset" />
          </mxGeometry>
        </mxCell>
        <mxCell id="Zt3mCWF-h2V0yo3Kd6dN-62" value="1:&lt;br&gt;+recibirComida()" style="html=1;verticalAlign=bottom;startArrow=oval;startFill=1;endArrow=block;startSize=8;edgeStyle=elbowEdgeStyle;elbow=horizontal;curved=0;rounded=0;" edge="1" parent="1">
          <mxGeometry width="60" relative="1" as="geometry">
            <mxPoint x="62.25999999999999" y="-49.72413793103442" as="sourcePoint" />
            <mxPoint x="192.26" y="-49.690000000000055" as="targetPoint" />
          </mxGeometry>
        </mxCell>
        <mxCell id="Zt3mCWF-h2V0yo3Kd6dN-63" value="" style="html=1;verticalAlign=bottom;endArrow=open;dashed=1;endSize=8;edgeStyle=elbowEdgeStyle;elbow=vertical;curved=0;rounded=0;exitX=0.473;exitY=0.574;exitDx=0;exitDy=0;exitPerimeter=0;" edge="1" parent="1">
          <mxGeometry x="-0.0028" relative="1" as="geometry">
            <mxPoint x="416.00101999999987" y="20.059999999999945" as="sourcePoint" />
            <mxPoint x="210" y="20" as="targetPoint" />
            <mxPoint as="offset" />
            <Array as="points" />
          </mxGeometry>
        </mxCell>
        <mxCell id="Zt3mCWF-h2V0yo3Kd6dN-64" value="&lt;i style=&quot;border-color: var(--border-color);&quot;&gt;estadoEnfermo&lt;/i&gt;" style="text;html=1;strokeColor=none;fillColor=none;align=center;verticalAlign=middle;whiteSpace=wrap;rounded=0;" vertex="1" parent="1">
          <mxGeometry x="267" y="-10" width="90" height="30" as="geometry" />
        </mxCell>
        <mxCell id="Zt3mCWF-h2V0yo3Kd6dN-65" value="&lt;i&gt;estadoEnfermo&lt;/i&gt;:&amp;nbsp;&lt;br&gt;&lt;b style=&quot;border-color: var(--border-color);&quot;&gt;EstadoEnfermo&lt;/b&gt;" style="shape=umlLifeline;perimeter=lifelinePerimeter;whiteSpace=wrap;html=1;container=1;dropTarget=0;collapsible=0;recursiveResize=0;outlineConnect=0;portConstraint=eastwest;newEdgeStyle={&quot;curved&quot;:0,&quot;rounded&quot;:0};" vertex="1" parent="1">
          <mxGeometry x="560" y="-20" width="140" height="160" as="geometry" />
        </mxCell>
        <mxCell id="Zt3mCWF-h2V0yo3Kd6dN-66" value="3:&lt;br&gt;new EstadoEnfermo()" style="html=1;verticalAlign=bottom;startArrow=none;startFill=0;endArrow=block;curved=0;rounded=0;entryX=0;entryY=0.143;entryDx=0;entryDy=0;entryPerimeter=0;strokeColor=default;" edge="1" parent="1" source="Zt3mCWF-h2V0yo3Kd6dN-59" target="Zt3mCWF-h2V0yo3Kd6dN-65">
          <mxGeometry x="-0.0006" width="60" relative="1" as="geometry">
            <mxPoint x="430" as="sourcePoint" />
            <mxPoint x="550" as="targetPoint" />
            <mxPoint as="offset" />
          </mxGeometry>
        </mxCell>
      </root>
    </mxGraphModel>
  </diagram>
</mxfile>
